<svg width="26" height="26" viewBox="0 0 26 26" fill="none" xmlns="http://www.w3.org/2000/svg">
<path d="M19.9062 0H6.09375C2.72826 0 0 2.72826 0 6.09375V19.9062C0 23.2717 2.72826 26 6.09375 26H19.9062C23.2717 26 26 23.2717 26 19.9062V6.09375C26 2.72826 23.2717 0 19.9062 0Z" fill="url(#paint0_radial_2001_408)"/>
<path d="M19.9062 0H6.09375C2.72826 0 0 2.72826 0 6.09375V19.9062C0 23.2717 2.72826 26 6.09375 26H19.9062C23.2717 26 26 23.2717 26 19.9062V6.09375C26 2.72826 23.2717 0 19.9062 0Z" fill="url(#paint1_radial_2001_408)"/>
<path d="M13.0009 2.84375C10.2427 2.84375 9.89645 2.85584 8.81319 2.90509C7.73195 2.95466 6.9939 3.12579 6.34816 3.37695C5.68009 3.63634 5.11347 3.98338 4.54898 4.54807C3.98399 5.11266 3.63695 5.67927 3.37675 6.34705C3.12488 6.99298 2.95354 7.73134 2.90489 8.81207C2.85645 9.89544 2.84375 10.2418 2.84375 13.0001C2.84375 15.7584 2.85594 16.1035 2.90509 17.1868C2.95486 18.268 3.12599 19.0061 3.37695 19.6518C3.63655 20.3199 3.98359 20.8865 4.54827 21.451C5.11266 22.016 5.67927 22.3639 6.34684 22.6232C6.99309 22.8744 7.73124 23.0455 8.81227 23.0951C9.89564 23.1444 10.2416 23.1565 12.9997 23.1565C15.7582 23.1565 16.1033 23.1444 17.1866 23.0951C18.2678 23.0455 19.0067 22.8744 19.653 22.6232C20.3207 22.3639 20.8865 22.016 21.4508 21.451C22.0158 20.8865 22.3627 20.3199 22.623 19.6521C22.8727 19.0061 23.0441 18.2678 23.0949 17.187C23.1436 16.1037 23.1562 15.7584 23.1562 13.0001C23.1562 10.2418 23.1436 9.89564 23.0949 8.81227C23.0441 7.73104 22.8727 6.99309 22.623 6.34735C22.3627 5.67927 22.0158 5.11266 21.4508 4.54807C20.8859 3.98318 20.3209 3.63614 19.6523 3.37705C19.0049 3.12579 18.2664 2.95455 17.1852 2.90509C16.1018 2.85584 15.7569 2.84375 12.9978 2.84375H13.0009ZM12.0898 4.67401C12.3603 4.6736 12.662 4.67401 13.0009 4.67401C15.7127 4.67401 16.0341 4.68376 17.105 4.73241C18.0952 4.7777 18.6327 4.94315 18.9907 5.08219C19.4647 5.26622 19.8026 5.4863 20.1578 5.84187C20.5133 6.19734 20.7333 6.53585 20.9178 7.00984C21.0569 7.36734 21.2225 7.90481 21.2676 8.89505C21.3162 9.96572 21.3268 10.2873 21.3268 12.9978C21.3268 15.7083 21.3162 16.0299 21.2676 17.1005C21.2223 18.0907 21.0569 18.6282 20.9178 18.9858C20.7338 19.4598 20.5133 19.7973 20.1578 20.1525C19.8024 20.508 19.4649 20.728 18.9907 20.9121C18.6331 21.0518 18.0952 21.2168 17.105 21.2621C16.0343 21.3108 15.7127 21.3213 13.0009 21.3213C10.289 21.3213 9.96755 21.3108 8.89698 21.2621C7.90674 21.2164 7.36927 21.051 7.01096 20.9119C6.53707 20.7278 6.19846 20.5078 5.84299 20.1523C5.48752 19.7969 5.26754 19.4592 5.083 18.985C4.94396 18.6274 4.77831 18.0899 4.73322 17.0997C4.68457 16.029 4.67482 15.7075 4.67482 12.9952C4.67482 10.2831 4.68457 9.96318 4.73322 8.89251C4.77852 7.90227 4.94396 7.3648 5.083 7.0068C5.26713 6.5328 5.48752 6.1943 5.84309 5.83883C6.19856 5.48336 6.53707 5.26327 7.01106 5.07884C7.36907 4.93919 7.90674 4.77415 8.89698 4.72865C9.83389 4.6863 10.197 4.6736 12.0898 4.67147V4.67401ZM18.4223 6.36035C17.7495 6.36035 17.2036 6.90574 17.2036 7.5787C17.2036 8.25155 17.7495 8.79745 18.4223 8.79745C19.0952 8.79745 19.6411 8.25155 19.6411 7.5787C19.6411 6.90584 19.0952 6.36035 18.4223 6.36035ZM13.0009 7.78436C10.1206 7.78436 7.78527 10.1197 7.78527 13.0001C7.78527 15.8805 10.1206 18.2147 13.0009 18.2147C15.8813 18.2147 18.2158 15.8805 18.2158 13.0001C18.2158 10.1198 15.8813 7.78436 13.0009 7.78436ZM13.0009 9.61462C14.8706 9.61462 16.3864 11.1302 16.3864 13.0001C16.3864 14.8698 14.8706 16.3856 13.0009 16.3856C11.1311 16.3856 9.61553 14.8698 9.61553 13.0001C9.61553 11.1302 11.1311 9.61462 13.0009 9.61462Z" fill="white"/>
<defs>
<radialGradient id="paint0_radial_2001_408" cx="0" cy="0" r="1" gradientUnits="userSpaceOnUse" gradientTransform="translate(6.90625 28.0025) rotate(-90) scale(25.7679 23.9662)">
<stop stop-color="#FFDD55"/>
<stop offset="0.1" stop-color="#FFDD55"/>
<stop offset="0.5" stop-color="#FF543E"/>
<stop offset="1" stop-color="#C837AB"/>
</radialGradient>
<radialGradient id="paint1_radial_2001_408" cx="0" cy="0" r="1" gradientUnits="userSpaceOnUse" gradientTransform="translate(-4.3551 1.87291) rotate(78.681) scale(11.5184 47.4792)">
<stop stop-color="#3771C8"/>
<stop offset="0.128" stop-color="#3771C8"/>
<stop offset="1" stop-color="#6600FF" stop-opacity="0"/>
</radialGradient>
</defs>
</svg>
