<svg width="26" height="28" viewBox="0 0 26 28" fill="none" xmlns="http://www.w3.org/2000/svg">
<path fill-rule="evenodd" clip-rule="evenodd" d="M19.1835 1.43276C15.111 0.522415 10.8878 0.522415 6.81528 1.43276L6.37647 1.52984C5.23093 1.78595 4.17881 2.35462 3.337 3.17268C2.49518 3.99073 1.89662 5.02613 1.60782 6.16387C0.575511 10.2316 0.575511 14.4928 1.60782 18.5606C1.88324 19.6456 2.44066 20.6386 3.22356 21.4388C4.00646 22.239 4.98702 22.8179 6.06581 23.1169L6.66772 26.7103C6.68693 26.8244 6.73639 26.9312 6.81093 27.0197C6.88547 27.1082 6.98237 27.1751 7.09155 27.2135C7.20072 27.2518 7.31818 27.2601 7.43168 27.2377C7.54519 27.2152 7.65059 27.1627 7.73691 27.0856L11.272 23.9234C13.9257 24.0853 16.5889 23.8731 19.1835 23.293L19.6236 23.1959C20.7691 22.9398 21.8213 22.3711 22.6631 21.5531C23.5049 20.735 24.1035 19.6996 24.3923 18.5619C25.4245 14.4941 25.4245 10.2329 24.3923 6.16517C24.1034 5.02726 23.5046 3.99174 22.6625 3.17368C21.8205 2.35561 20.7681 1.78703 19.6223 1.53113L19.1835 1.43276ZM7.90778 6.05903C7.6672 6.02401 7.4219 6.07243 7.21267 6.19624H7.19455C6.70914 6.48101 6.27163 6.83956 5.89883 7.26155C5.58817 7.6201 5.4199 7.98254 5.37588 8.33203C5.35 8.53914 5.36812 8.74884 5.42896 8.94689L5.45226 8.95983C5.80175 9.98631 6.25739 10.974 6.81399 11.9033C7.53168 13.2088 8.41487 14.4161 9.44167 15.4954L9.47274 15.5394L9.52192 15.5756L9.55169 15.6106L9.58794 15.6416C10.671 16.6715 11.8812 17.5589 13.189 18.2823C14.6841 19.0965 15.5915 19.4809 16.1364 19.6414V19.6492C16.2956 19.6984 16.4406 19.7204 16.5869 19.7204C17.051 19.6861 17.4903 19.4974 17.8347 19.1845C18.2554 18.8117 18.6114 18.3729 18.8884 17.8849V17.8758C19.1486 17.3839 19.0605 16.9205 18.6851 16.606C17.9311 15.9472 17.1158 15.362 16.2503 14.8585C15.6704 14.544 15.0815 14.7343 14.8433 15.0527L14.3346 15.6947C14.0731 16.0131 13.5994 15.9691 13.5994 15.9691L13.5864 15.9769C10.0513 15.0747 9.10771 11.4956 9.10771 11.4956C9.10771 11.4956 9.0637 11.0089 9.39119 10.7604L10.028 10.2478C10.3335 9.99925 10.5458 9.41158 10.2183 8.83168C9.71817 7.9654 9.13417 7.15032 8.47473 6.39817C8.33091 6.22115 8.12921 6.10058 7.90519 6.05773L7.90778 6.05903ZM13.8802 4.50313C13.7086 4.50313 13.544 4.57132 13.4226 4.69269C13.3012 4.81407 13.233 4.97869 13.233 5.15034C13.233 5.32199 13.3012 5.48661 13.4226 5.60799C13.544 5.72936 13.7086 5.79755 13.8802 5.79755C15.5177 5.79755 16.8768 6.33215 17.9525 7.35733C18.5052 7.91782 18.9363 8.58186 19.2184 9.30932C19.5019 10.0381 19.6314 10.816 19.5977 11.5953C19.5941 11.6803 19.6074 11.7651 19.6366 11.845C19.6658 11.9249 19.7105 11.9983 19.7681 12.0609C19.8843 12.1874 20.0461 12.2625 20.2177 12.2697C20.3894 12.2769 20.5569 12.2156 20.6834 12.0993C20.8098 11.983 20.8849 11.8213 20.8921 11.6496C20.9323 10.6911 20.7732 9.73465 20.4249 8.84074C20.075 7.94259 19.5446 7.12578 18.8664 6.44088L18.8534 6.42794C17.5189 5.15293 15.8296 4.50313 13.8802 4.50313ZM13.8362 6.63116C13.6646 6.63116 13.5 6.69935 13.3786 6.82073C13.2572 6.9421 13.189 7.10672 13.189 7.27837C13.189 7.45002 13.2572 7.61465 13.3786 7.73602C13.5 7.8574 13.6646 7.92559 13.8362 7.92559H13.8582C15.0388 8.00972 15.8983 8.40323 16.5002 9.04914C17.1176 9.71448 17.4373 10.5416 17.4127 11.5642C17.4088 11.7359 17.4732 11.9021 17.5918 12.0262C17.7104 12.1504 17.8734 12.2224 18.0451 12.2263C18.2167 12.2303 18.3829 12.1659 18.5071 12.0473C18.6312 11.9287 18.7032 11.7656 18.7072 11.594C18.7382 10.2517 18.3059 9.09315 17.449 8.16894V8.16635C16.5726 7.2266 15.3701 6.72954 13.923 6.63246L13.901 6.62987L13.8362 6.63116ZM13.8116 8.79932C13.725 8.79168 13.6378 8.80157 13.5551 8.8284C13.4723 8.85523 13.3959 8.89845 13.3303 8.95548C13.2646 9.01251 13.2111 9.08218 13.173 9.16033C13.1349 9.23849 13.1129 9.32352 13.1084 9.41035C13.1039 9.49718 13.1169 9.58404 13.1467 9.66573C13.1765 9.74742 13.2224 9.82227 13.2818 9.88582C13.3411 9.94936 13.4127 10.0003 13.4922 10.0356C13.5716 10.0709 13.6574 10.0898 13.7443 10.0912C14.2854 10.1196 14.631 10.2827 14.8485 10.5015C15.0672 10.7215 15.2303 11.0749 15.2601 11.6276C15.2617 11.7145 15.2808 11.8001 15.3162 11.8795C15.3516 11.9588 15.4027 12.0302 15.4662 12.0893C15.5298 12.1485 15.6047 12.1943 15.6863 12.224C15.768 12.2536 15.8548 12.2665 15.9415 12.2619C16.0283 12.2573 16.1132 12.2353 16.1913 12.1971C16.2693 12.159 16.3389 12.1056 16.3959 12.04C16.4528 11.9744 16.496 11.898 16.5228 11.8154C16.5496 11.7328 16.5595 11.6456 16.5519 11.559C16.5105 10.7824 16.2672 10.0963 15.7688 9.59151C15.2679 9.08668 14.5857 8.84074 13.8116 8.79932Z" fill="#5223A8"/>
</svg>
