<svg width="26" height="26" viewBox="0 0 26 26" fill="none" xmlns="http://www.w3.org/2000/svg">
<path d="M23.6257 6.29217C19.8919 0.49763 12.2456 -1.21927 6.33224 2.37549C0.56178 5.97025 -1.2962 13.8036 2.43762 19.5803L2.74133 20.0453L1.49077 24.731L6.17145 23.4791L6.63594 23.7831C8.65471 24.874 10.8521 25.5 13.0317 25.5C15.372 25.5 17.7124 24.874 19.7311 23.6221C25.5016 19.8664 27.2166 12.194 23.6257 6.2564V6.29217ZM20.3564 18.3462C19.7311 19.2762 18.9451 19.9022 17.8553 20.0631C17.23 20.0631 16.4439 20.3672 13.3354 19.1332C10.6913 17.8813 8.49392 15.8424 6.93965 13.4996C6.01066 12.4086 5.5283 10.9958 5.38538 9.5829C5.38538 8.33099 5.84988 7.24004 6.63594 6.45313C6.93965 6.1491 7.26123 5.98814 7.56493 5.98814H8.351C8.65471 5.98814 8.97628 5.98814 9.13707 6.61409C9.44078 7.401 10.2268 9.27886 10.2268 9.43982C10.3876 9.60078 10.3162 10.799 9.60156 11.4786C9.20853 11.9258 9.13707 11.9436 9.29786 12.2656C9.92314 13.1955 10.7092 14.1434 11.4774 14.9303C12.4064 15.7172 13.3533 16.3432 14.443 16.8082C14.7467 16.9691 15.0683 16.9691 15.2291 16.6472C15.3899 16.3432 16.1581 15.5563 16.4797 15.2344C16.7834 14.9303 16.9442 14.9303 17.2657 15.0734L19.7669 16.3253C20.0706 16.4863 20.3921 16.6293 20.5529 16.7903C20.7137 17.2553 20.7137 17.8813 20.3921 18.3462H20.3564Z" fill="#23A850"/>
</svg>
